<svg width="323" height="46" viewBox="0 0 323 46" fill="none" xmlns="http://www.w3.org/2000/svg">
<g clip-path="url(#clip0_152_3)">
<path d="M7.14002 46.0002H0V0.174316H7.14002V46.0002Z" fill="#161340"/>
<path d="M62.8523 0.174316V46.0002H54.085L32.5985 9.50663H32.3661L32.4989 11.5263C32.7867 15.2407 32.9306 18.7925 32.9306 22.1819V46.0002H26.4548V0.174316H35.1225L56.5425 36.4938H56.7086C56.4429 30.5276 56.3101 26.4302 56.3101 24.2016V0.174316H62.8523Z" fill="#161340"/>
<path d="M89.2992 27.1963V46.0002H82.2256V0.174316H106.867V6.51193H89.2992V20.8238H105.771V27.1963H89.2992Z" fill="#161340"/>
<path d="M129.741 46.0002H122.601V0.174316H129.741V46.0002Z" fill="#161340"/>
<path d="M185.453 0.174316V46.0002H176.686L155.199 9.50663H154.967L155.1 11.5263C155.388 15.2407 155.532 18.7925 155.532 22.1819V46.0002H149.056V0.174316H157.723L179.143 36.4938H179.31C179.044 30.5276 178.911 26.4302 178.911 24.2016V0.174316H185.453Z" fill="#161340"/>
<path d="M229.534 39.6278V46.0002H204.827V0.174316H229.534V6.51193H211.967V18.9782H228.438V25.2462H211.967V39.6278H229.534Z" fill="#161340"/>
<path d="M281.509 46H273.904L269.554 33.2899H252.816L248.566 46H241.027L257.366 0H265.137L281.509 46ZM254.909 26.813H267.661C264.274 16.436 262.403 10.6556 262.049 9.47161C261.694 8.28766 261.418 7.27782 261.218 6.44209C260.687 8.97249 259.901 11.7815 258.86 14.869L254.909 26.813Z" fill="#161340"/>
<path d="M310.148 6.6164V46.0002H303.008V6.6164H290.156V0.174316H323V6.6164H310.148Z" fill="#161340"/>
</g>
<defs>
<clipPath id="clip0_152_3">
<rect width="323" height="46" fill="white"/>
</clipPath>
</defs>
</svg>
